<?xml version="1.0" standalone="no"?>
<!DOCTYPE svg PUBLIC "-//W3C//DTD SVG 1.1//EN" "http://www.w3.org/Graphics/SVG/1.1/DTD/svg11.dtd" >
<svg>
<metadata>
Created by FontForge 20120731 at Fri Oct  6 15:19:50 2017
 By www
Copyright (c) Sharkshock Productions 2002
</metadata>
<defs>
<font id="HawaiianPunk" horiz-adv-x="311" >
  <font-face 
    font-family="Hawaiian Punk"
    font-weight="400"
    font-stretch="normal"
    units-per-em="1000"
    panose-1="2 0 0 0 0 0 0 0 0 0"
    ascent="800"
    descent="-200"
    x-height="465"
    cap-height="592"
    bbox="-95 -215 854 715.308"
    underline-thickness="23"
    underline-position="-69"
    unicode-range="U+0020-F002"
  />
<missing-glyph horiz-adv-x="244" 
d="M31 0h500v625h-500v-625zM46 16v593h469v-593h-469z" />
    <glyph glyph-name=".notdef" horiz-adv-x="244" 
d="M31 0h500v625h-500v-625zM46 16v593h469v-593h-469z" />
    <glyph glyph-name=".null" horiz-adv-x="0" 
 />
    <glyph glyph-name="nonmarkingreturn" horiz-adv-x="190" 
 />
    <glyph glyph-name="space" unicode=" " horiz-adv-x="190" 
 />
    <glyph glyph-name="exclam" unicode="!" horiz-adv-x="320" 
d="M21 665v45l272 -26l-48 -631l-199 -17zM47 -77l-31 38l288 35l-144 -196z" />
    <glyph glyph-name="quotedbl" unicode="&#x22;" horiz-adv-x="116" 
 />
    <glyph glyph-name="numbersign" unicode="#" 
 />
    <glyph glyph-name="dollar" unicode="$" 
 />
    <glyph glyph-name="percent" unicode="%" 
 />
    <glyph glyph-name="ampersand" unicode="&#x26;" horiz-adv-x="237" 
 />
    <glyph glyph-name="quotesingle" unicode="'" horiz-adv-x="83" 
 />
    <glyph glyph-name="parenleft" unicode="(" horiz-adv-x="164" 
 />
    <glyph glyph-name="parenright" unicode=")" horiz-adv-x="187" 
 />
    <glyph glyph-name="asterisk" unicode="*" horiz-adv-x="240" 
 />
    <glyph glyph-name="plus" unicode="+" 
 />
    <glyph glyph-name="comma" unicode="," horiz-adv-x="270" 
d="M95 41l-5 1h-60q0 -10 -3 -23v-7l-1 -9l-2 -7l-1 -10v-7l-2 -16v-7l-2 -13l-1 -6q6 0 13.5 0.5t16.5 1.5l23 4q56 -53 -47 -152q196 12 215 166v46l-1 9l-7 25l-42 1q-5 -1 -18 1z" />
    <glyph glyph-name="hyphen" unicode="-" horiz-adv-x="409" 
d="M23 111v141l363 43l-2 -183z" />
    <glyph glyph-name="hyphen" unicode="&#x2010;" horiz-adv-x="409" 
d="M23 111v141l363 43l-2 -183z" />
    <glyph glyph-name="period" unicode="." horiz-adv-x="332" 
d="M31 -54q-26 -126 123 -138q153 -5 153 122q-39 99 -159 90q-82 -10 -117 -74z" />
    <glyph glyph-name="slash" unicode="/" horiz-adv-x="174" 
 />
    <glyph glyph-name="zero" unicode="0" horiz-adv-x="724" 
d="M55 277q64 217 278 324q269 59 348 -226q43 -472 -338 -585q-367 0 -288 487zM325 -4q62 93 115.5 169t100.5 139l-323 9z" />
    <glyph glyph-name="one" unicode="1" horiz-adv-x="308" 
d="M34 379v224l252 -32l-59 -786l-169 4z" />
    <glyph glyph-name="two" unicode="2" horiz-adv-x="703" 
d="M20 324q14 235 258 302q331 45 317 -213q-16 -220 -186 -406l244 45q7 3 14 -4l7 -241l-475 -14v204l208 333l15 42q16 61 -45 51q-46 -28 -79 -82l-6 -7l-59 -97z" />
    <glyph glyph-name="three" unicode="3" horiz-adv-x="669" 
d="M209 625l7 3q277 34 368 -134q30 -111 -83 -198q159 -56 158 -205q-12 -150 -188 -237q-115 -51 -262 -38l-51 190q286 -20 281 87v25q-7 81 -308 -16l-32 110v10q-3 3 -3 12q-13 33 -16 60q14 3 53.5 10.5t105.5 20.5q131 25 118 101q-47 58 -288 -75l-20 60t-13 37
l-26 93q85 61 199 84z" />
    <glyph glyph-name="four" unicode="4" horiz-adv-x="651" 
d="M440 635l15 3l102 3l-54 -203l112 2l-26 -309l-88 1l9 -339h-331q55 326 55 338h-211l14 476l179 14q5 -14 28.5 -61t65.5 -128l31 195z" />
    <glyph glyph-name="five" unicode="5" horiz-adv-x="575" 
d="M62 538l11 116l472 -88l-22 -320l-283 98l3 -37q268 -123 234 -376q-92 -191 -311 -123q-47 15 -90 52l-6 3q6 40 25 93l9 34q6 9 9 24q3 4 19 44l3 12q18 -9 33 -31l32 -34q40 -52 61 -19q25 55 -21 105q-63 47 -149 40l-68 102z" />
    <glyph glyph-name="six" unicode="6" horiz-adv-x="661" 
d="M281 621l73 41l48 21l121 -212q-195 -33 -271 -169q421 51 383 -306q-44 -260 -430 -185l-74 41l-16 13l-6 7q-83 71 -98 221q-14 151 162 423l15 19l10 12zM472 132l-331 -20l210 -177z" />
    <glyph glyph-name="seven" unicode="7" horiz-adv-x="546" 
d="M50 409l-34 221l543 -18l-221 -819l-279 123l166 490z" />
    <glyph glyph-name="eight" unicode="8" horiz-adv-x="720" 
d="M113 450q-66 -274 244 -274q322 63 286 329q-67 160 -295 127q-179 -60 -235 -182zM328 443l-48 58l273 -4q-20 -18 -38 -31t-39 -26.5t-45.5 -28.5t-55.5 -37zM45 134q-84 -343 305 -343q406 80 359 412q-84 200 -370 160q-227 -75 -294 -229zM332 -64l-114 223l342 -6
q-49 -45 -105.5 -98t-122.5 -119z" />
    <glyph glyph-name="nine" unicode="9" horiz-adv-x="679" 
d="M379 -146l-73 -41l-48 -21l-121 212q194 33 271 170q-419 -51 -383 306q43 259 431 185l73 -41l16 -14l7 -6q135 -119 107 -351q-27 -233 -280 -399zM481 493l-322 8l145 -163z" />
    <glyph glyph-name="colon" unicode=":" horiz-adv-x="336" 
d="M43 346q-23 -126 114 -138q141 -5 141 122q-36 99 -146 90q-74 -10 -109 -74zM34 -54q-24 -126 123 -138q153 -5 153 122q-39 99 -158 90q-83 -11 -118 -74z" />
    <glyph glyph-name="semicolon" unicode=";" horiz-adv-x="273" 
d="M119 41l-5 1h-60q0 -10 -3 -23v-7l-1 -9l-2 -7l-1 -10v-7l-3 -16v-7l-1 -13l-1 -6q6 0 13.5 0.5t16.5 1.5l23 4q56 -53 -47 -152q196 12 215 166v46l-1 9l-7 25l-42 1q-5 -1 -18 1zM42 337q32 71 104 83q103 10 138 -101q0 -141 -134 -136q-129 13 -108 154z" />
    <glyph glyph-name="less" unicode="&#x3c;" 
 />
    <glyph glyph-name="equal" unicode="=" 
 />
    <glyph glyph-name="greater" unicode="&#x3e;" 
 />
    <glyph glyph-name="question" unicode="?" horiz-adv-x="628" 
d="M10 663l30 7l46 8q452 89 547 -117q91 -301 -318 -364l15 -176l-175 -23l-84 343q226 -5 264 72q54 132 -279 20zM152 -82l-31 40l289 33l-145 -195z" />
    <glyph glyph-name="at" unicode="@" horiz-adv-x="283" 
 />
    <glyph glyph-name="A" unicode="A" horiz-adv-x="732" 
d="M9 -212q94 413 141.5 621t49.5 212h289l212 -786h-232l-37 74h-118l-20 -121h-285zM470 282l-210 6l110 -131z" />
    <glyph glyph-name="B" unicode="B" horiz-adv-x="653" 
d="M19 657l15 3q371 53 503 -99q132 -150 69 -339q-15 -51 -76 -107q101 -77 49 -197q-59 -122 -264 -122h-234l-50 614h284v-169l16 -3q60 22 61 92q2 71 -73 108q-233 100 -354 -69l-9 276zM390 -1l3 80l-114 -110l106 -76z" />
    <glyph glyph-name="C" unicode="C" horiz-adv-x="753" 
d="M40 231q-34 -285 179 -411q261 -93 448 139l16 19l40 70l-173 87q-94 -70 -150 38q-56 110 25 180q82 70 146 -42l173 170q-123 198 -336 167q-316 -99 -368 -417z" />
    <glyph glyph-name="D" unicode="D" horiz-adv-x="700" 
d="M61 671l16 3q735 42 580 -611q-90 -269 -532 -270l-51 625h291v-365l-2 -24q43 34 84 117q106 361 -309 330q-36 -11 -77 -36q-14 -11 -28 -27t-27 -37l-9 283z" />
    <glyph glyph-name="E" unicode="E" horiz-adv-x="586" 
d="M24 452v197h548v-197h-237l-6 -3v-104q27 -7 75 -4h100v-204h-143q-12 3 -32 -3v-139q22 -7 49 -4h97v-198h-373l-5 346l-59 -2l-14 3v201h65l-6 108z" />
    <glyph glyph-name="F" unicode="F" horiz-adv-x="553" 
d="M-7 491v206h548v-206l-244 -3v-108l176 1v-217l-176 -3l-2 -355h-225l-5 360l-72 -1v211h64v114z" />
    <glyph glyph-name="G" unicode="G" horiz-adv-x="803" 
d="M40 231q-34 -285 179 -411q261 -93 448 139l16 19l40 70l-173 87q-94 -70 -150 38q-56 110 25 180q82 70 146 -42l173 170q-123 198 -336 167q-316 -99 -368 -417zM465 53l313 2l2 182l-315 -43v-141z" />
    <glyph glyph-name="H" unicode="H" horiz-adv-x="643" 
d="M355 472l-1 -47l-52 1v250h-243v-253l-113 -1l29 -192l84 -2v-369h243l1 370l52 -1v-422h241v893h-241v-227z" />
    <glyph glyph-name="I" unicode="I" horiz-adv-x="395" 
d="M20 381l80 -590h193l125 737l-428 64z" />
    <glyph glyph-name="J" unicode="J" horiz-adv-x="674" 
d="M412 130v519h211v-565q0 -77 -13 -110q-58 -127 -211 -168q-140 -32 -271 56q-121 100 -108 274l335 118q-9 -140 16 -174q9 -6 19 -6q25 7 22 56z" />
    <glyph glyph-name="K" unicode="K" horiz-adv-x="688" 
d="M475 662l6 12h295l-367 -432l271 -419h-274l-146 248l-52 -198h-153q0 24 -75 758h308l-28 -302z" />
    <glyph glyph-name="L" unicode="L" horiz-adv-x="601" 
d="M36 158l-42 486h324l-64 -578l304 203l-37 -471h-449z" />
    <glyph glyph-name="M" unicode="M" horiz-adv-x="867" 
d="M459 536l18 89h168l209 -775h-229l-79 218l-23 -177h-137l-58 168l-29 -255h-296q-3 19 131 781h241l58 -186z" />
    <glyph glyph-name="N" unicode="N" horiz-adv-x="674" 
d="M388 359v288h261v-760h-219l-185 239v-304h-220v761h181z" />
    <glyph glyph-name="O" unicode="O" horiz-adv-x="700" 
d="M42 277q65 219 251 304q295 79 375 -206q43 -472 -338 -585q-367 0 -288 487zM354 4q45 78 87.5 153t85.5 147l-318 -31z" />
    <glyph glyph-name="P" unicode="P" horiz-adv-x="731" 
d="M92 682l16 3q458 47 588 -281q43 -325 -304 -344v-247h-237l-51 620h288v-171l16 -3q59 22 61 93q2 72 -73 109q-234 100 -358 -70l-9 278z" />
    <glyph glyph-name="Q" unicode="Q" horiz-adv-x="661" 
d="M33 277q65 218 251 304q295 79 375 -206q43 -472 -338 -585q-367 0 -288 487zM345 4q88 156 174 300l-319 -31zM409 -62v54l226 -8l19 -185l-224 -4z" />
    <glyph glyph-name="R" unicode="R" horiz-adv-x="685" 
d="M12 709l17 3h96q285 28 467 -181q135 -199 -53 -387l185 -350h-257l-142 294v-237h-247l-53 611h300v-159l-2 -23q98 26 114 89t-121 122q-136 58 -284 6q-44 -26 -75 -75l-11 275z" />
    <glyph glyph-name="S" unicode="S" horiz-adv-x="682" 
d="M87 464q78 183 295 196q161 -5 299 -116l-156 -183q-121 87 -161 38q25 -28 71 -53l6 -3l94 -65q2 -3 18 -16l12 -9q2 -2 5 -4t8 -5l44 -50l5 -9q60 -131 -24 -264q-226 -252 -590 -19l186 292q-158 90 -112 270zM420 88h-190l75 -102z" />
    <glyph glyph-name="T" unicode="T" horiz-adv-x="620" 
d="M10 443v232h599v-232l-124 -3l26 -607l-341 4l80 608z" />
    <glyph glyph-name="U" unicode="U" horiz-adv-x="639" 
d="M23 24v616h208v-494l3 -21l3 -22q6 -15 21 -30q25 18 28 54q3 22 3 49v464h323v-613q-29 -155 -195 -207q-271 -73 -391 186z" />
    <glyph glyph-name="V" unicode="V" horiz-adv-x="657" 
d="M-92 581l-3 22h361l75 -559l56 499l332 3l-266 -753l-260 13z" />
    <glyph glyph-name="W" unicode="W" horiz-adv-x="722" 
d="M300 -102l-17 -90h-169l-209 775h230l78 -217l23 177h137l58 -168l29 255h296q3 -19 -131 -781h-240l-58 186z" />
    <glyph glyph-name="X" unicode="X" horiz-adv-x="690" 
d="M214 165q-279 469 -285 484l307 -9l116 -228l102 179h353q-5 -14 -308 -475l119 -238t42 -85l-234 13l-63 108l-67 -108l-274 17z" />
    <glyph glyph-name="Y" unicode="Y" horiz-adv-x="482" 
d="M301 363l119 280l183 14l-213 -594l-1 -238l-272 5l-7 262l-184 522l297 27z" />
    <glyph glyph-name="Z" unicode="Z" horiz-adv-x="690" 
d="M43 589v43l569 -12q0 -8 -5 -23l-217 -499l222 -4l-8 -301h-589l262 523l10 16l-251 -11z" />
    <glyph glyph-name="bracketleft" unicode="[" horiz-adv-x="138" 
 />
    <glyph glyph-name="backslash" unicode="\" horiz-adv-x="155" 
 />
    <glyph glyph-name="bracketright" unicode="]" horiz-adv-x="152" 
 />
    <glyph glyph-name="asciicircum" unicode="^" horiz-adv-x="161" 
 />
    <glyph glyph-name="underscore" unicode="_" horiz-adv-x="239" 
 />
    <glyph glyph-name="grave" unicode="`" horiz-adv-x="174" 
 />
    <glyph glyph-name="a" unicode="a" horiz-adv-x="586" 
d="M7 -170q150 661 153 667h231l170 -629h-186l-29 59h-95l-16 -97h-228zM376 226l-168 4l88 -104z" />
    <glyph glyph-name="b" unicode="b" horiz-adv-x="522" 
d="M15 526l12 2q297 42 403 -79q105 -120 55 -271q-12 -42 -61 -86q81 -62 39 -158q-47 -97 -211 -97h-187l-40 491h227v-135l13 -3q48 18 49 74q0 56 -59 86q-186 81 -283 -55l-7 221zM312 -1l2 64l-91 -88l85 -61z" />
    <glyph glyph-name="c" unicode="c" horiz-adv-x="602" 
d="M32 185q-27 -228 143 -329q209 -75 359 111l12 15l32 56l-138 70q-74 -57 -120 30q-45 88 20 144q64 55 117 -33l138 136q-98 158 -269 133q-252 -78 -294 -333z" />
    <glyph glyph-name="d" unicode="d" horiz-adv-x="560" 
d="M49 537l13 2q587 35 464 -489q-72 -215 -426 -216l-41 500h233v-292l-2 -19q35 28 68 94q84 289 -248 264q-14 -5 -29 -11.5t-32 -17.5q-11 -9 -22.5 -21.5t-21.5 -29.5l-7 226z" />
    <glyph glyph-name="e" unicode="e" horiz-adv-x="469" 
d="M19 362v157h439v-157h-190l-5 -3v-83q22 -6 60 -3h80v-163h-114q-10 1 -26 -3v-111q18 -6 39 -3h78v-159h-298l-4 277l-48 -1l-11 2v161h52l-5 86z" />
    <glyph glyph-name="f" unicode="f" horiz-adv-x="442" 
d="M-6 393v165h439v-165l-195 -3v-86l140 1v-174l-140 -2l-2 -284h-180l-4 288l-58 -1v169h52v91z" />
    <glyph glyph-name="g" unicode="g" horiz-adv-x="642" 
d="M32 185q-27 -228 143 -329q209 -75 359 111l12 15l32 56l-138 70q-74 -57 -120 30q-45 88 20 144q64 55 117 -33l138 136q-98 158 -269 133q-252 -78 -294 -333zM372 42l250 2l2 146l-252 -35v-113z" />
    <glyph glyph-name="h" unicode="h" horiz-adv-x="514" 
d="M284 378v181h193v-714h-193v337l-42 1v-296h-195v295l-90 1v155h90v203h195v-200l41 -1z" />
    <glyph glyph-name="i" unicode="i" horiz-adv-x="305" 
d="M-1 607l-7 12h341l-183 -177zM16 369v23h283l-65 -559h-154z" />
    <glyph glyph-name="j" unicode="j" horiz-adv-x="539" 
d="M330 104v415h168v-452q0 -61 -10 -88q-47 -102 -169 -134q-112 -26 -217 45q-96 80 -86 219l268 94q-8 -113 13 -139q8 -5 15 -5q20 6 18 45z" />
    <glyph glyph-name="k" unicode="k" horiz-adv-x="550" 
d="M380 530l5 9h236l-294 -345l217 -336h-219l-117 199l-42 -159h-122q0 20 -60 607h246l-22 -242z" />
    <glyph glyph-name="l" unicode="l" horiz-adv-x="481" 
d="M29 126l-34 389h259l-51 -462l243 162l-29 -377h-359z" />
    <glyph glyph-name="m" unicode="m" horiz-adv-x="694" 
d="M367 429l15 71h134l167 -620h-183l-63 174l-19 -141h-109l-47 134l-23 -204h-237q-1 16 105 625h193l46 -149z" />
    <glyph glyph-name="n" unicode="n" horiz-adv-x="539" 
d="M310 287v231h209v-608h-175l-148 191v-243h-176v608h145z" />
    <glyph glyph-name="o" unicode="o" horiz-adv-x="560" 
d="M34 222q51 175 200 243q237 63 300 -165q36 -378 -270 -468q-295 0 -230 390zM283 3q35 63 69.5 122.5t69.5 117.5l-255 -25z" />
    <glyph glyph-name="p" unicode="p" horiz-adv-x="585" 
d="M74 546l12 2q366 37 471 -225q35 -260 -243 -275v-198h-190l-41 496h231v-136l12 -3q47 18 49 75t-58 87q-187 79 -287 -56l-7 222z" />
    <glyph glyph-name="q" unicode="q" horiz-adv-x="529" 
d="M26 222q52 174 201 243q237 63 300 -165q34 -378 -270 -468q-294 0 -231 390zM276 3q35 63 70 122.5t69 117.5l-255 -25zM327 -50v44l181 -7l15 -148l-179 -3z" />
    <glyph glyph-name="r" unicode="r" horiz-adv-x="548" 
d="M10 567l13 3h77q228 22 374 -145q107 -160 -43 -310l148 -280h-205l-114 235v-189h-198l-42 489h240v-128l-2 -18q79 21 92 71q12 52 -97 98q-110 47 -227 5q-36 -21 -60 -60l-9 220z" />
    <glyph glyph-name="s" unicode="s" horiz-adv-x="546" 
d="M70 371q61 146 236 157q127 -3 239 -93l-125 -146q-97 69 -129 30q11 -11 24.5 -21.5t32.5 -20.5l5 -3l75 -52q2 -2 5 -4.5l9 -7.5l10 -8q2 -1 10 -7l36 -40l4 -7q48 -104 -20 -211q-180 -202 -472 -15l149 233q-126 72 -89 216zM336 70h-152l60 -81z" />
    <glyph glyph-name="t" unicode="t" horiz-adv-x="496" 
d="M8 354v186h479v-186l-99 -2l21 -486l-273 4l64 486z" />
    <glyph glyph-name="u" unicode="u" horiz-adv-x="511" 
d="M18 19v493h167v-395l2 -17l3 -18q5 -13 16 -24q20 14 23 44q1 9 1.5 18.5t0.5 20.5v371h259v-490q-24 -124 -156 -166q-217 -58 -313 149z" />
    <glyph glyph-name="v" unicode="v" horiz-adv-x="526" 
d="M-74 465l-2 17h289l60 -447l45 399l265 3l-213 -603l-208 11z" />
    <glyph glyph-name="w" unicode="w" horiz-adv-x="578" 
d="M240 -82l-14 -72h-135l-167 620h184l62 -173l19 141h109l47 -134l23 204h237q2 -16 -105 -625h-192l-46 149z" />
    <glyph glyph-name="x" unicode="x" horiz-adv-x="552" 
d="M171 132q-112 189 -169 284.5t-59 102.5l246 -7l93 -182l81 143h283q-6 -13 -247 -380q126 -251 129 -259l-187 11l-51 86l-53 -86l-219 13z" />
    <glyph glyph-name="y" unicode="y" horiz-adv-x="386" 
d="M241 290l95 224l146 12l-170 -476l-1 -190l-217 4l-6 210l-147 417l237 22z" />
    <glyph glyph-name="z" unicode="z" horiz-adv-x="552" 
d="M34 471v35l456 -10q0 -5 -1 -9t-3 -9l-174 -400l178 -3l-7 -241h-471l210 419l8 13l-201 -9z" />
    <glyph glyph-name="braceleft" unicode="{" horiz-adv-x="205" 
 />
    <glyph glyph-name="bar" unicode="|" horiz-adv-x="98" 
 />
    <glyph glyph-name="braceright" unicode="}" horiz-adv-x="176" 
 />
    <glyph glyph-name="asciitilde" unicode="~" 
 />
    <glyph glyph-name="quotesinglbase" unicode="&#x201a;" horiz-adv-x="114" 
 />
    <glyph glyph-name="florin" unicode="&#x192;" horiz-adv-x="281" 
 />
    <glyph glyph-name="quotedblbase" unicode="&#x201e;" horiz-adv-x="196" 
 />
    <glyph glyph-name="ellipsis" unicode="&#x2026;" horiz-adv-x="387" 
 />
    <glyph glyph-name="dagger" unicode="&#x2020;" horiz-adv-x="220" 
 />
    <glyph glyph-name="daggerdbl" unicode="&#x2021;" horiz-adv-x="164" 
 />
    <glyph glyph-name="circumflex" unicode="&#x2c6;" horiz-adv-x="176" 
 />
    <glyph glyph-name="perthousand" unicode="&#x2030;" horiz-adv-x="356" 
 />
    <glyph glyph-name="Scaron" unicode="&#x160;" horiz-adv-x="303" 
 />
    <glyph glyph-name="guilsinglleft" unicode="&#x2039;" horiz-adv-x="157" 
 />
    <glyph glyph-name="OE" unicode="&#x152;" horiz-adv-x="466" 
 />
    <glyph glyph-name="Zcaron" unicode="&#x17d;" horiz-adv-x="337" 
 />
    <glyph glyph-name="quoteleft" unicode="&#x2018;" horiz-adv-x="116" 
 />
    <glyph glyph-name="quoteright" unicode="&#x2019;" horiz-adv-x="117" 
 />
    <glyph glyph-name="quotedblleft" unicode="&#x201c;" horiz-adv-x="167" 
 />
    <glyph glyph-name="quotedblright" unicode="&#x201d;" horiz-adv-x="146" 
 />
    <glyph glyph-name="bullet" unicode="&#x2022;" horiz-adv-x="189" 
 />
    <glyph glyph-name="endash" unicode="&#x2013;" horiz-adv-x="334" 
 />
    <glyph glyph-name="emdash" unicode="&#x2014;" horiz-adv-x="437" 
 />
    <glyph glyph-name="tilde" unicode="&#x2dc;" horiz-adv-x="236" 
 />
    <glyph glyph-name="trademark" unicode="&#x2122;" horiz-adv-x="333" 
 />
    <glyph glyph-name="scaron" unicode="&#x161;" horiz-adv-x="167" 
 />
    <glyph glyph-name="guilsinglright" unicode="&#x203a;" horiz-adv-x="157" 
 />
    <glyph glyph-name="oe" unicode="&#x153;" horiz-adv-x="369" 
 />
    <glyph glyph-name="zcaron" unicode="&#x17e;" horiz-adv-x="226" 
 />
    <glyph glyph-name="Ydieresis" unicode="&#x178;" horiz-adv-x="257" 
 />
    <glyph glyph-name="nonbreakingspace" unicode="&#xa0;" horiz-adv-x="243" 
 />
    <glyph glyph-name="exclamdown" unicode="&#xa1;" horiz-adv-x="151" 
 />
    <glyph glyph-name="cent" unicode="&#xa2;" 
 />
    <glyph glyph-name="sterling" unicode="&#xa3;" 
 />
    <glyph glyph-name="currency" unicode="&#xa4;" horiz-adv-x="205" 
 />
    <glyph glyph-name="yen" unicode="&#xa5;" 
 />
    <glyph glyph-name="brokenbar" unicode="&#xa6;" horiz-adv-x="98" 
 />
    <glyph glyph-name="section" unicode="&#xa7;" horiz-adv-x="205" 
 />
    <glyph glyph-name="dieresis" unicode="&#xa8;" horiz-adv-x="181" 
 />
    <glyph glyph-name="copyright" unicode="&#xa9;" horiz-adv-x="349" 
 />
    <glyph glyph-name="ordfeminine" unicode="&#xaa;" horiz-adv-x="196" 
 />
    <glyph glyph-name="guillemotleft" unicode="&#xab;" horiz-adv-x="264" 
 />
    <glyph glyph-name="logicalnot" unicode="&#xac;" horiz-adv-x="681" 
 />
    <glyph glyph-name="minus" unicode="&#xad;" 
 />
    <glyph glyph-name="minus" unicode="&#x2212;" 
 />
    <glyph glyph-name="registered" unicode="&#xae;" horiz-adv-x="365" 
 />
    <glyph glyph-name="macron" unicode="&#xaf;" horiz-adv-x="176" 
 />
    <glyph glyph-name="macron" unicode="&#x2c9;" horiz-adv-x="176" 
 />
    <glyph glyph-name="degree" unicode="&#xb0;" horiz-adv-x="139" 
 />
    <glyph glyph-name="plusminus" unicode="&#xb1;" 
 />
    <glyph glyph-name="twosuperior" unicode="&#xb2;" horiz-adv-x="146" 
 />
    <glyph glyph-name="threesuperior" unicode="&#xb3;" horiz-adv-x="146" 
 />
    <glyph glyph-name="acute" unicode="&#xb4;" horiz-adv-x="226" 
 />
    <glyph glyph-name="mu" unicode="&#xb5;" horiz-adv-x="205" 
 />
    <glyph glyph-name="mu" unicode="&#x3bc;" horiz-adv-x="205" 
 />
    <glyph glyph-name="paragraph" unicode="&#xb6;" horiz-adv-x="220" 
 />
    <glyph glyph-name="periodcentered" unicode="&#xb7;" horiz-adv-x="101" 
 />
    <glyph glyph-name="periodcentered" unicode="&#x2219;" horiz-adv-x="101" 
 />
    <glyph glyph-name="cedilla" unicode="&#xb8;" horiz-adv-x="157" 
 />
    <glyph glyph-name="onesuperior" unicode="&#xb9;" horiz-adv-x="146" 
 />
    <glyph glyph-name="ordmasculine" unicode="&#xba;" horiz-adv-x="196" 
 />
    <glyph glyph-name="guillemotright" unicode="&#xbb;" horiz-adv-x="264" 
 />
    <glyph glyph-name="onequarter" unicode="&#xbc;" horiz-adv-x="384" 
 />
    <glyph glyph-name="onehalf" unicode="&#xbd;" horiz-adv-x="384" 
 />
    <glyph glyph-name="threequarters" unicode="&#xbe;" horiz-adv-x="384" 
 />
    <glyph glyph-name="questiondown" unicode="&#xbf;" horiz-adv-x="277" 
 />
    <glyph glyph-name="Agrave" unicode="&#xc0;" horiz-adv-x="297" 
 />
    <glyph glyph-name="Aacute" unicode="&#xc1;" horiz-adv-x="297" 
 />
    <glyph glyph-name="Acircumflex" unicode="&#xc2;" horiz-adv-x="297" 
 />
    <glyph glyph-name="Atilde" unicode="&#xc3;" horiz-adv-x="297" 
 />
    <glyph glyph-name="Adieresis" unicode="&#xc4;" horiz-adv-x="297" 
 />
    <glyph glyph-name="Aring" unicode="&#xc5;" horiz-adv-x="297" 
 />
    <glyph glyph-name="AE" unicode="&#xc6;" horiz-adv-x="400" 
 />
    <glyph glyph-name="Ccedilla" unicode="&#xc7;" horiz-adv-x="356" 
 />
    <glyph glyph-name="Egrave" unicode="&#xc8;" horiz-adv-x="316" 
 />
    <glyph glyph-name="Eacute" unicode="&#xc9;" horiz-adv-x="316" 
 />
    <glyph glyph-name="Ecircumflex" unicode="&#xca;" horiz-adv-x="316" 
 />
    <glyph glyph-name="Edieresis" unicode="&#xcb;" horiz-adv-x="316" 
 />
    <glyph glyph-name="Igrave" unicode="&#xcc;" horiz-adv-x="114" 
 />
    <glyph glyph-name="Iacute" unicode="&#xcd;" horiz-adv-x="114" 
 />
    <glyph glyph-name="Icircumflex" unicode="&#xce;" horiz-adv-x="114" 
 />
    <glyph glyph-name="Idieresis" unicode="&#xcf;" horiz-adv-x="114" 
 />
    <glyph glyph-name="Eth" unicode="&#xd0;" horiz-adv-x="324" 
 />
    <glyph glyph-name="Ntilde" unicode="&#xd1;" horiz-adv-x="299" 
 />
    <glyph glyph-name="Ograve" unicode="&#xd2;" horiz-adv-x="340" 
 />
    <glyph glyph-name="Oacute" unicode="&#xd3;" horiz-adv-x="340" 
 />
    <glyph glyph-name="Ocircumflex" unicode="&#xd4;" horiz-adv-x="340" 
 />
    <glyph glyph-name="Otilde" unicode="&#xd5;" horiz-adv-x="340" 
 />
    <glyph glyph-name="Odieresis" unicode="&#xd6;" horiz-adv-x="340" 
 />
    <glyph glyph-name="multiply" unicode="&#xd7;" 
 />
    <glyph glyph-name="Oslash" unicode="&#xd8;" horiz-adv-x="340" 
 />
    <glyph glyph-name="Ugrave" unicode="&#xd9;" horiz-adv-x="322" 
 />
    <glyph glyph-name="Uacute" unicode="&#xda;" horiz-adv-x="322" 
 />
    <glyph glyph-name="Ucircumflex" unicode="&#xdb;" horiz-adv-x="322" 
 />
    <glyph glyph-name="Udieresis" unicode="&#xdc;" horiz-adv-x="322" 
 />
    <glyph glyph-name="Yacute" unicode="&#xdd;" horiz-adv-x="257" 
 />
    <glyph glyph-name="Thorn" unicode="&#xde;" horiz-adv-x="281" 
 />
    <glyph glyph-name="germandbls" unicode="&#xdf;" horiz-adv-x="243" 
 />
    <glyph glyph-name="agrave" unicode="&#xe0;" horiz-adv-x="180" 
 />
    <glyph glyph-name="aacute" unicode="&#xe1;" horiz-adv-x="180" 
 />
    <glyph glyph-name="acircumflex" unicode="&#xe2;" horiz-adv-x="180" 
 />
    <glyph glyph-name="atilde" unicode="&#xe3;" horiz-adv-x="180" 
 />
    <glyph glyph-name="adieresis" unicode="&#xe4;" horiz-adv-x="180" 
 />
    <glyph glyph-name="aring" unicode="&#xe5;" horiz-adv-x="180" 
 />
    <glyph glyph-name="ae" unicode="&#xe6;" horiz-adv-x="365" 
 />
    <glyph glyph-name="ccedilla" unicode="&#xe7;" horiz-adv-x="249" 
 />
    <glyph glyph-name="egrave" unicode="&#xe8;" horiz-adv-x="237" 
 />
    <glyph glyph-name="eacute" unicode="&#xe9;" horiz-adv-x="237" 
 />
    <glyph glyph-name="ecircumflex" unicode="&#xea;" horiz-adv-x="237" 
 />
    <glyph glyph-name="edieresis" unicode="&#xeb;" horiz-adv-x="237" 
 />
    <glyph glyph-name="igrave" unicode="&#xec;" horiz-adv-x="114" 
 />
    <glyph glyph-name="iacute" unicode="&#xed;" horiz-adv-x="114" 
 />
    <glyph glyph-name="icircumflex" unicode="&#xee;" horiz-adv-x="114" 
 />
    <glyph glyph-name="idieresis" unicode="&#xef;" horiz-adv-x="114" 
 />
    <glyph glyph-name="eth" unicode="&#xf0;" horiz-adv-x="236" 
 />
    <glyph glyph-name="ntilde" unicode="&#xf1;" horiz-adv-x="187" 
 />
    <glyph glyph-name="ograve" unicode="&#xf2;" horiz-adv-x="179" 
 />
    <glyph glyph-name="oacute" unicode="&#xf3;" horiz-adv-x="179" 
 />
    <glyph glyph-name="ocircumflex" unicode="&#xf4;" horiz-adv-x="179" 
 />
    <glyph glyph-name="otilde" unicode="&#xf5;" horiz-adv-x="179" 
 />
    <glyph glyph-name="odieresis" unicode="&#xf6;" horiz-adv-x="179" 
 />
    <glyph glyph-name="divide" unicode="&#xf7;" 
 />
    <glyph glyph-name="oslash" unicode="&#xf8;" horiz-adv-x="179" 
 />
    <glyph glyph-name="ugrave" unicode="&#xf9;" horiz-adv-x="167" 
 />
    <glyph glyph-name="uacute" unicode="&#xfa;" horiz-adv-x="167" 
 />
    <glyph glyph-name="ucircumflex" unicode="&#xfb;" horiz-adv-x="167" 
 />
    <glyph glyph-name="udieresis" unicode="&#xfc;" horiz-adv-x="167" 
 />
    <glyph glyph-name="yacute" unicode="&#xfd;" horiz-adv-x="192" 
 />
    <glyph glyph-name="thorn" unicode="&#xfe;" horiz-adv-x="170" 
 />
    <glyph glyph-name="ydieresis" unicode="&#xff;" horiz-adv-x="192" 
 />
    <glyph glyph-name="FL294" horiz-adv-x="180" 
 />
    <glyph glyph-name="FL295" horiz-adv-x="186" 
 />
    <glyph glyph-name="FL296" horiz-adv-x="249" 
 />
    <glyph glyph-name="FL297" horiz-adv-x="253" 
 />
    <glyph glyph-name="FL298" horiz-adv-x="237" 
 />
    <glyph glyph-name="FL299" horiz-adv-x="190" 
 />
    <glyph glyph-name="FL300" horiz-adv-x="231" 
 />
    <glyph glyph-name="FL301" horiz-adv-x="231" 
 />
    <glyph glyph-name="FL302" horiz-adv-x="114" 
 />
    <glyph glyph-name="FL303" horiz-adv-x="127" 
 />
    <glyph glyph-name="FL304" horiz-adv-x="287" 
 />
    <glyph glyph-name="FL305" horiz-adv-x="104" 
 />
    <glyph glyph-name="FL306" horiz-adv-x="308" 
 />
    <glyph glyph-name="FL307" horiz-adv-x="187" 
 />
    <glyph glyph-name="FL308" horiz-adv-x="179" 
 />
    <glyph glyph-name="FL309" horiz-adv-x="170" 
 />
    <glyph glyph-name="FL310" horiz-adv-x="166" 
 />
    <glyph glyph-name="FL311" horiz-adv-x="199" 
 />
    <glyph glyph-name="FL312" horiz-adv-x="167" 
 />
    <glyph glyph-name="FL313" horiz-adv-x="193" 
 />
    <glyph glyph-name="FL314" horiz-adv-x="167" 
 />
    <glyph glyph-name="FL315" horiz-adv-x="215" 
 />
    <glyph glyph-name="FL316" horiz-adv-x="346" 
 />
    <glyph glyph-name="FL317" horiz-adv-x="132" 
 />
    <glyph glyph-name="FL318" horiz-adv-x="192" 
 />
    <glyph glyph-name="FL319" horiz-adv-x="226" 
 />
    <glyph glyph-name="Lslash" unicode="&#x141;" horiz-adv-x="278" 
 />
    <glyph glyph-name="lslash" unicode="&#x142;" horiz-adv-x="104" 
 />
    <glyph glyph-name="notequal" unicode="&#x2260;" 
 />
    <glyph glyph-name="infinity" unicode="&#x221e;" horiz-adv-x="327" 
 />
    <glyph glyph-name="lessequal" unicode="&#x2264;" horiz-adv-x="167" 
 />
    <glyph glyph-name="greaterequal" unicode="&#x2265;" horiz-adv-x="167" 
 />
    <glyph glyph-name="partialdiff" unicode="&#x2202;" horiz-adv-x="236" 
 />
    <glyph glyph-name="summation" unicode="&#x2211;" horiz-adv-x="683" 
 />
    <glyph glyph-name="product" unicode="&#x220f;" horiz-adv-x="390" 
 />
    <glyph glyph-name="pi" unicode="&#x3c0;" horiz-adv-x="390" 
 />
    <glyph glyph-name="integral" unicode="&#x222b;" horiz-adv-x="683" 
 />
    <glyph glyph-name="Omega" unicode="&#x3a9;" horiz-adv-x="705" 
 />
    <glyph glyph-name="Omega" unicode="&#x2126;" horiz-adv-x="705" 
 />
    <glyph glyph-name="radical" unicode="&#x221a;" horiz-adv-x="400" 
 />
    <glyph glyph-name="approxequal" unicode="&#x2248;" 
 />
    <glyph glyph-name="approxequal" unicode="&#x22f2;" 
 />
    <glyph glyph-name="Delta" unicode="&#x394;" horiz-adv-x="179" 
 />
    <glyph glyph-name="Delta" unicode="&#x2206;" horiz-adv-x="179" 
 />
    <glyph glyph-name="lozenge" unicode="&#x25ca;" horiz-adv-x="119" 
 />
    <glyph glyph-name="fraction" unicode="&#x2044;" horiz-adv-x="114" 
 />
    <glyph glyph-name="fi" unicode="&#xf001;" horiz-adv-x="256" 
 />
    <glyph glyph-name="fl" unicode="&#xf002;" horiz-adv-x="234" 
 />
    <glyph glyph-name="apple" unicode="&#xf000;" horiz-adv-x="287" 
 />
    <glyph glyph-name="dotlessi" unicode="&#x131;" horiz-adv-x="114" 
 />
    <glyph glyph-name="breve" unicode="&#x2d8;" horiz-adv-x="176" 
 />
    <glyph glyph-name="dotaccent" unicode="&#x2d9;" horiz-adv-x="89" 
 />
    <glyph glyph-name="ring" unicode="&#x2da;" horiz-adv-x="176" 
 />
    <glyph glyph-name="hungarumlaut" unicode="&#x2dd;" horiz-adv-x="229" 
 />
    <glyph glyph-name="ogonek" unicode="&#x2db;" horiz-adv-x="132" 
 />
    <glyph glyph-name="caron" unicode="&#x2c7;" horiz-adv-x="176" 
 />
  </font>
</defs>
</svg>
